<?xml version="1.0" encoding="utf-8"?>
<!-- Generator: Adobe Illustrator 24.1.1, SVG Export Plug-In . SVG Version: 6.00 Build 0)  -->
<svg version="1.1" id="Layer_1" xmlns="http://www.w3.org/2000/svg" xmlns:xlink="http://www.w3.org/1999/xlink" x="0px" y="0px"
	 viewBox="0 0 512 512" style="enable-background:new 0 0 512 512;" xml:space="preserve">
<style type="text/css">
	.st0{fill:#333333;}
</style>
<g id="XMLID_1_">
	<path id="XMLID_3_" class="st0" d="M319.8,149.7H42.5C18.9,149.7,0,168.6,0,192.2v192.2c0,23.6,18.9,42.5,42.5,42.5h21.3V512
		l113.4-85.1h142.6c23.6,0,42.5-18.9,42.5-42.5V192.2C362.3,168.6,343.4,149.7,319.8,149.7z"/>
	<polygon id="XMLID_4_" class="st0" points="448.2,63.8 448.2,0 405.7,0 405.7,63.8 341.1,63.8 341.1,106.3 405.7,106.3 
		405.7,170.9 448.2,170.9 448.2,106.3 512,106.3 512,63.8 	"/>
</g>
</svg>
